<svg preserveAspectRatio="none" overflow="visible" style="display: block;" width="22.5" height="22.5" viewBox="0 0 22.5 22.5" fill="none" xmlns="http://www.w3.org/2000/svg">
<g id="bibble-c">
<rect width="22.5" height="22.5" rx="11.25" fill="#0D0D12"/>
<path id="C" d="M10.4346 17.057C9.31641 17.057 8.36646 16.7639 7.58478 16.1777C6.8031 15.5914 6.2657 14.8097 5.97257 13.8326C5.6903 12.8555 5.6903 11.8079 5.97257 10.6896C6.23313 9.59311 6.71625 8.63773 7.42193 7.82348C8.13847 7.00923 8.96357 6.37955 9.89724 5.93443C10.8309 5.4893 11.7754 5.26674 12.7308 5.26674C13.2085 5.26674 13.6102 5.3156 13.9359 5.41331C14.2725 5.51102 14.6144 5.63587 14.9619 5.78786C15.0921 5.853 15.217 5.90728 15.3364 5.95071C15.4667 5.99414 15.5753 6.01585 15.6621 6.01585C15.8467 6.01585 16.015 5.96157 16.1669 5.853C16.3189 5.73358 16.4492 5.57073 16.5578 5.36445L16.8183 5.38074L16.0855 9.90795L15.8738 9.89167C15.8738 9.05571 15.7544 8.31203 15.5155 7.66063C15.2876 7.00923 14.951 6.49897 14.5059 6.12985C14.0608 5.76072 13.5451 5.55987 12.9588 5.5273C12.3291 5.49473 11.6994 5.65758 11.0698 6.01585C10.4509 6.37412 9.90267 6.88438 9.42498 7.54664C8.95814 8.20889 8.62702 8.958 8.4316 9.79396C8.18189 10.8362 8.18189 11.7807 8.4316 12.6275C8.69215 13.4744 9.14271 14.1366 9.78325 14.6143C10.4346 15.092 11.1946 15.32 12.0631 15.2983C12.8882 15.2766 13.6428 15.0269 14.3267 14.5492C15.0216 14.0606 15.5807 13.3929 16.0041 12.5461L16.1832 12.595C15.8575 13.4635 15.4124 14.2343 14.8479 14.9074C14.2942 15.5805 13.6374 16.1071 12.8774 16.4871C12.1283 16.8671 11.314 17.057 10.4346 17.057Z" fill="white"/>
</g>
</svg>
