<svg width="228" height="62" viewBox="0 0 228 62" fill="none" xmlns="http://www.w3.org/2000/svg">
<rect width="227.326" height="61.1868" rx="13.5934" fill="#FFE243"/>
<path d="M27.4697 19.2656H47.2934M45.8781 33.4254L37.3807 24.928L28.8833 33.4254M37.3816 24.9295V41.9213" stroke="#161616" stroke-width="2.83196" stroke-linecap="round" stroke-linejoin="round"/>
<path d="M75.4825 41.9302C74.0451 41.9302 72.7851 41.6595 71.7025 41.1182C70.6385 40.5582 69.8078 39.8022 69.2105 38.8502C68.6131 37.8795 68.2865 36.7782 68.2305 35.5462H71.6185C71.6931 36.2182 71.8891 36.8062 72.2065 37.3102C72.5238 37.7955 72.9531 38.1782 73.4945 38.4582C74.0545 38.7382 74.7171 38.8782 75.4825 38.8782C76.2291 38.8782 76.8545 38.7662 77.3585 38.5422C77.8811 38.3182 78.2638 38.0195 78.5065 37.6462C78.7678 37.2729 78.8985 36.8529 78.8985 36.3862C78.8985 35.8075 78.7118 35.3315 78.3385 34.9582C77.9838 34.5662 77.5358 34.2489 76.9945 34.0062C76.4531 33.7635 75.7065 33.4835 74.7545 33.1662C73.4665 32.7369 72.4211 32.3262 71.6185 31.9342C70.8158 31.5235 70.1251 30.9355 69.5465 30.1702C68.9678 29.4049 68.6785 28.4155 68.6785 27.2022C68.6785 26.1382 68.9398 25.1862 69.4625 24.3462C69.9851 23.5062 70.7411 22.8529 71.7305 22.3862C72.7385 21.9009 73.9145 21.6582 75.2585 21.6582C76.5651 21.6582 77.7225 21.9289 78.7305 22.4702C79.7385 23.0115 80.5225 23.7582 81.0825 24.7102C81.6611 25.6435 81.9785 26.6982 82.0345 27.8742H78.6185C78.5811 27.2582 78.4225 26.7169 78.1425 26.2502C77.8625 25.7649 77.4705 25.3915 76.9665 25.1302C76.4811 24.8502 75.9118 24.7102 75.2585 24.7102C74.5865 24.7102 74.0078 24.8222 73.5225 25.0462C73.0371 25.2515 72.6731 25.5502 72.4305 25.9422C72.2065 26.3155 72.0945 26.7449 72.0945 27.2302C72.0945 27.7902 72.2718 28.2662 72.6265 28.6582C72.9811 29.0315 73.4198 29.3302 73.9425 29.5542C74.4651 29.7782 75.2118 30.0489 76.1825 30.3662C77.4518 30.7582 78.4971 31.1595 79.3185 31.5702C80.1398 31.9622 80.8398 32.5409 81.4185 33.3062C81.9971 34.0715 82.2865 35.0702 82.2865 36.3022C82.2865 37.3849 82.0158 38.3555 81.4745 39.2142C80.9518 40.0542 80.1771 40.7169 79.1505 41.2022C78.1238 41.6875 76.9011 41.9302 75.4825 41.9302Z" fill="black"/>
<path d="M91.4466 41.9302C90.1586 41.9302 88.9733 41.6035 87.8906 40.9502C86.808 40.2969 85.9493 39.4009 85.3146 38.2622C84.68 37.1235 84.3626 35.8635 84.3626 34.4822C84.3626 33.1569 84.68 31.9249 85.3146 30.7862C85.968 29.6289 86.836 28.7235 87.9186 28.0702C89.0013 27.3982 90.168 27.0622 91.4186 27.0622C92.6693 27.0622 93.8173 27.3795 94.8626 28.0142C95.908 28.6302 96.7293 29.4889 97.3266 30.5902C97.924 31.6729 98.2226 32.8769 98.2226 34.2022C98.2226 34.5382 98.204 34.8369 98.1666 35.0982C98.148 35.3595 98.12 35.5649 98.0826 35.7142H86.8266V33.3342H96.0666L95.0306 35.2662C95.0866 35.0795 95.124 34.9115 95.1426 34.7622C95.18 34.6129 95.1986 34.4635 95.1986 34.3142C95.1986 33.4929 95.0306 32.7555 94.6946 32.1022C94.3773 31.4302 93.9293 30.9075 93.3506 30.5342C92.772 30.1422 92.128 29.9462 91.4186 29.9462C90.6906 29.9462 90.0186 30.1422 89.4026 30.5342C88.8053 30.9075 88.3386 31.4395 88.0026 32.1302C87.6666 32.8209 87.4986 33.6049 87.4986 34.4822C87.4986 35.4155 87.6573 36.2275 87.9746 36.9182C88.3106 37.6089 88.7773 38.1409 89.3746 38.5142C89.972 38.8689 90.6626 39.0462 91.4466 39.0462C92.1373 39.0462 92.7253 38.9155 93.2106 38.6542C93.696 38.3742 94.088 38.0382 94.3866 37.6462H97.7466C97.4666 38.3555 97.028 39.0369 96.4306 39.6902C95.8333 40.3435 95.1053 40.8849 94.2466 41.3142C93.388 41.7249 92.4546 41.9302 91.4466 41.9302Z" fill="black"/>
<path d="M106.167 41.9302C105.289 41.9302 104.505 41.7342 103.815 41.3422C103.143 40.9315 102.611 40.3529 102.219 39.6062C101.827 38.8595 101.631 37.9729 101.631 36.9462V30.2822H99.3345V27.5942H100.343C100.884 27.5942 101.304 27.4542 101.603 27.1742C101.901 26.8755 102.051 26.4555 102.051 25.9142V23.7582H104.851V27.3982H107.875V30.2822H104.851V36.6662C104.851 37.4129 105.028 37.9729 105.383 38.3462C105.756 38.7195 106.269 38.9062 106.923 38.9062C107.296 38.9062 107.613 38.8409 107.875 38.7102V41.6502C107.669 41.7249 107.417 41.7902 107.119 41.8462C106.839 41.9022 106.521 41.9302 106.167 41.9302Z" fill="black"/>
<path d="M124.478 41.9302C123.787 41.9302 123.153 41.8182 122.574 41.5942C121.995 41.3702 121.51 41.1182 121.118 40.8382C120.745 40.5395 120.465 40.2782 120.278 40.0542H120.138L119.578 41.5942H117.17V21.9942H120.39V28.8262H120.53C120.661 28.6209 120.903 28.3875 121.258 28.1262C121.631 27.8462 122.098 27.6035 122.658 27.3982C123.218 27.1742 123.825 27.0622 124.478 27.0622C125.635 27.0622 126.718 27.3889 127.726 28.0422C128.734 28.6769 129.537 29.5635 130.134 30.7022C130.731 31.8222 131.03 33.0822 131.03 34.4822C131.03 35.8822 130.731 37.1515 130.134 38.2902C129.537 39.4289 128.734 40.3249 127.726 40.9782C126.718 41.6129 125.635 41.9302 124.478 41.9302ZM124.086 38.9342C124.758 38.9342 125.374 38.7475 125.934 38.3742C126.513 38.0009 126.97 37.4782 127.306 36.8062C127.642 36.1342 127.81 35.3595 127.81 34.4822C127.81 33.6235 127.642 32.8582 127.306 32.1862C126.97 31.5142 126.513 30.9915 125.934 30.6182C125.374 30.2449 124.758 30.0582 124.086 30.0582C123.433 30.0582 122.817 30.2449 122.238 30.6182C121.678 30.9915 121.23 31.5142 120.894 32.1862C120.558 32.8582 120.39 33.6235 120.39 34.4822C120.39 35.3595 120.558 36.1342 120.894 36.8062C121.23 37.4782 121.678 38.0009 122.238 38.3742C122.817 38.7475 123.433 38.9342 124.086 38.9342Z" fill="black"/>
<path d="M139.309 41.9302C138.189 41.9302 137.2 41.6782 136.341 41.1742C135.482 40.6515 134.81 39.9235 134.325 38.9902C133.84 38.0569 133.597 36.9742 133.597 35.7422V27.3982H136.817V35.4902C136.817 36.1622 136.948 36.7595 137.209 37.2822C137.489 37.8049 137.872 38.2155 138.357 38.5142C138.842 38.7942 139.374 38.9342 139.953 38.9342C140.588 38.9342 141.138 38.7942 141.605 38.5142C142.09 38.2155 142.473 37.8049 142.753 37.2822C143.033 36.7595 143.173 36.1622 143.173 35.4902V27.3982H146.393V41.5942H143.985L143.397 40.0542H143.257C142.94 40.4835 142.426 40.9035 141.717 41.3142C141.026 41.7249 140.224 41.9302 139.309 41.9302Z" fill="black"/>
<path d="M155.637 41.9302C154.48 41.9302 153.397 41.6129 152.389 40.9782C151.381 40.3249 150.579 39.4289 149.981 38.2902C149.384 37.1515 149.085 35.8822 149.085 34.4822C149.085 33.0822 149.384 31.8222 149.981 30.7022C150.579 29.5635 151.381 28.6769 152.389 28.0422C153.397 27.3889 154.48 27.0622 155.637 27.0622C156.291 27.0622 156.897 27.1742 157.457 27.3982C158.017 27.6035 158.475 27.8462 158.829 28.1262C159.203 28.3875 159.455 28.6209 159.585 28.8262H159.725V21.9942H162.945V41.5942H160.537L159.977 40.0542H159.837C159.651 40.2782 159.361 40.5395 158.969 40.8382C158.596 41.1182 158.12 41.3702 157.541 41.5942C156.963 41.8182 156.328 41.9302 155.637 41.9302ZM156.029 38.9342C156.701 38.9342 157.317 38.7475 157.877 38.3742C158.437 38.0009 158.885 37.4782 159.221 36.8062C159.557 36.1342 159.725 35.3595 159.725 34.4822C159.725 33.6235 159.557 32.8582 159.221 32.1862C158.885 31.5142 158.437 30.9915 157.877 30.6182C157.317 30.2449 156.701 30.0582 156.029 30.0582C155.357 30.0582 154.732 30.2449 154.153 30.6182C153.593 30.9915 153.145 31.5142 152.809 32.1862C152.473 32.8582 152.305 33.6235 152.305 34.4822C152.305 35.3595 152.473 36.1342 152.809 36.8062C153.145 37.4782 153.593 38.0009 154.153 38.3742C154.732 38.7475 155.357 38.9342 156.029 38.9342Z" fill="black"/>
<path d="M172.82 46.9142C171.495 46.9142 170.366 46.6622 169.432 46.1582C168.518 45.6729 167.818 45.0849 167.332 44.3942C166.866 43.7222 166.548 43.0689 166.38 42.4342H169.684C169.89 42.8822 170.254 43.2555 170.776 43.5542C171.299 43.8715 171.962 44.0302 172.764 44.0302C173.81 44.0302 174.64 43.7315 175.256 43.1342C175.872 42.5555 176.18 41.7622 176.18 40.7542V39.2702H176.04C175.91 39.4942 175.667 39.7462 175.312 40.0262C174.958 40.3062 174.51 40.5582 173.968 40.7822C173.446 40.9875 172.867 41.0902 172.232 41.0902C171.094 41.0902 170.03 40.7822 169.04 40.1662C168.051 39.5315 167.258 38.6822 166.66 37.6182C166.082 36.5355 165.792 35.3502 165.792 34.0622C165.792 32.7929 166.082 31.6262 166.66 30.5622C167.258 29.4795 168.051 28.6302 169.04 28.0142C170.03 27.3795 171.094 27.0622 172.232 27.0622C172.904 27.0622 173.52 27.1742 174.08 27.3982C174.64 27.6035 175.098 27.8555 175.452 28.1542C175.826 28.4529 176.106 28.7142 176.292 28.9382H176.432L177.02 27.3982H179.4V40.6982C179.4 41.9675 179.13 43.0689 178.588 44.0022C178.066 44.9355 177.31 45.6542 176.32 46.1582C175.331 46.6622 174.164 46.9142 172.82 46.9142ZM172.596 38.1782C173.231 38.1782 173.819 38.0009 174.36 37.6462C174.92 37.2915 175.359 36.8062 175.676 36.1902C176.012 35.5555 176.18 34.8462 176.18 34.0622C176.18 33.2969 176.012 32.5969 175.676 31.9622C175.359 31.3275 174.92 30.8329 174.36 30.4782C173.819 30.1235 173.231 29.9462 172.596 29.9462C171.962 29.9462 171.364 30.1235 170.804 30.4782C170.263 30.8329 169.824 31.3275 169.488 31.9622C169.171 32.5969 169.012 33.2969 169.012 34.0622C169.012 34.8462 169.171 35.5555 169.488 36.1902C169.824 36.8062 170.263 37.2915 170.804 37.6462C171.364 38.0009 171.962 38.1782 172.596 38.1782Z" fill="black"/>
<path d="M189.201 41.9302C187.913 41.9302 186.727 41.6035 185.645 40.9502C184.562 40.2969 183.703 39.4009 183.069 38.2622C182.434 37.1235 182.117 35.8635 182.117 34.4822C182.117 33.1569 182.434 31.9249 183.069 30.7862C183.722 29.6289 184.59 28.7235 185.673 28.0702C186.755 27.3982 187.922 27.0622 189.173 27.0622C190.423 27.0622 191.571 27.3795 192.617 28.0142C193.662 28.6302 194.483 29.4889 195.081 30.5902C195.678 31.6729 195.977 32.8769 195.977 34.2022C195.977 34.5382 195.958 34.8369 195.921 35.0982C195.902 35.3595 195.874 35.5649 195.837 35.7142H184.581V33.3342H193.821L192.785 35.2662C192.841 35.0795 192.878 34.9115 192.897 34.7622C192.934 34.6129 192.953 34.4635 192.953 34.3142C192.953 33.4929 192.785 32.7555 192.449 32.1022C192.131 31.4302 191.683 30.9075 191.105 30.5342C190.526 30.1422 189.882 29.9462 189.173 29.9462C188.445 29.9462 187.773 30.1422 187.157 30.5342C186.559 30.9075 186.093 31.4395 185.757 32.1302C185.421 32.8209 185.253 33.6049 185.253 34.4822C185.253 35.4155 185.411 36.2275 185.729 36.9182C186.065 37.6089 186.531 38.1409 187.129 38.5142C187.726 38.8689 188.417 39.0462 189.201 39.0462C189.891 39.0462 190.479 38.9155 190.965 38.6542C191.45 38.3742 191.842 38.0382 192.141 37.6462H195.501C195.221 38.3555 194.782 39.0369 194.185 39.6902C193.587 40.3435 192.859 40.8849 192.001 41.3142C191.142 41.7249 190.209 41.9302 189.201 41.9302Z" fill="black"/>
<path d="M203.92 41.9302C203.043 41.9302 202.259 41.7342 201.568 41.3422C200.896 40.9315 200.364 40.3529 199.972 39.6062C199.58 38.8595 199.384 37.9729 199.384 36.9462V30.2822H197.088V27.5942H198.096C198.638 27.5942 199.058 27.4542 199.356 27.1742C199.655 26.8755 199.804 26.4555 199.804 25.9142V23.7582H202.604V27.3982H205.628V30.2822H202.604V36.6662C202.604 37.4129 202.782 37.9729 203.136 38.3462C203.51 38.7195 204.023 38.9062 204.676 38.9062C205.05 38.9062 205.367 38.8409 205.628 38.7102V41.6502C205.423 41.7249 205.171 41.7902 204.872 41.8462C204.592 41.9022 204.275 41.9302 203.92 41.9302Z" fill="black"/>
</svg>
