<svg width="1020" height="202" viewBox="0 0 1020 202" fill="none" xmlns="http://www.w3.org/2000/svg">
<rect x="3.88761" y="3.88761" width="194.225" height="194.225" rx="97.1124" fill="#FF7700" stroke="#2A2A2A" stroke-width="7.77523" stroke-dasharray="27.44 27.44"/>
<path d="M173.005 94.7985C176.798 98.1673 176.798 103.826 173.005 107.195C161.209 117.669 134.56 137.745 103.575 137.745C72.5891 137.745 45.94 117.669 34.1443 107.195C30.3506 103.826 30.3506 98.1673 34.1443 94.7985C45.94 84.3239 72.5891 64.2485 103.575 64.2485C134.56 64.2485 161.209 84.3239 173.005 94.7985Z" fill="white" stroke="black" stroke-width="7.77523"/>
<ellipse cx="103.569" cy="100.997" rx="22.0888" ry="21.5397" fill="#32CC5B" stroke="black" stroke-width="7.77523"/>
<path d="M222 101H314.298" stroke="white" stroke-width="9" stroke-linecap="round" stroke-dasharray="0.1 13"/>
<path d="M334.299 24C334.299 10.7452 345.044 0 358.299 0H517.448C530.703 0 541.448 10.7452 541.448 24V178C541.448 191.255 530.703 202 517.448 202H358.299C345.044 202 334.299 191.255 334.299 178V24Z" fill="#0D0D12"/>
<path d="M375.316 81.999C375.316 75.3716 380.689 69.999 387.316 69.999H422.795C429.422 69.999 434.795 75.3716 434.795 81.999V165.999C434.795 172.626 429.422 177.999 422.795 177.999H387.316C380.689 177.999 375.316 172.626 375.316 165.999V81.999Z" fill="#5B45CD"/>
<path d="M441.975 42.001C441.975 35.3736 447.347 30.001 453.975 30.001H489.453C496.08 30.001 501.453 35.3736 501.453 42.001V166.001C501.453 172.628 496.08 178.001 489.453 178.001H453.975C447.347 178.001 441.975 172.628 441.975 166.001V42.001Z" fill="#1877F2"/>
<rect x="555.029" y="64.6918" width="206" height="147.463" rx="73.7316" transform="rotate(-20.1937 555.029 64.6918)" stroke="#FF4747" stroke-width="10"/>
<rect x="567.225" y="70.3285" width="187" height="128.463" rx="64.2316" transform="rotate(-20.1937 567.225 70.3285)" fill="#1877F2"/>
<rect x="567.225" y="70.3285" width="187" height="128.463" rx="64.2316" transform="rotate(-20.1937 567.225 70.3285)" stroke="#004195" stroke-width="11"/>
<circle cx="704.619" cy="88.2328" r="48.7316" transform="rotate(-20.1937 704.619 88.2328)" fill="white"/>
<path d="M812.852 24C812.852 10.7452 823.597 0 836.852 0H996.001C1009.26 0 1020 10.7452 1020 24V178C1020 191.255 1009.26 202 996.001 202H836.852C823.597 202 812.852 191.255 812.852 178V24Z" fill="#FF21A6"/>
<path d="M837.463 36.999C837.463 30.3716 842.835 24.999 849.463 24.999H961.853C968.481 24.999 973.853 30.3716 973.853 36.999V36.999C973.853 43.6264 968.481 48.999 961.853 48.999H849.463C842.835 48.999 837.463 43.6264 837.463 36.999V36.999Z" fill="white"/>
<path d="M837.463 69C837.463 62.3726 842.835 57 849.463 57H913.655C920.282 57 925.655 62.3726 925.655 69V69C925.655 75.6274 920.282 81 913.655 81H849.463C842.835 81 837.463 75.6274 837.463 69V69Z" fill="white"/>
</svg>
