<svg width="352" height="280" viewBox="0 0 352 280" fill="none" xmlns="http://www.w3.org/2000/svg">
<path d="M12.2709 103.635C8.73962 94.1085 13.5999 83.523 23.1265 79.9917L173.346 24.3096C182.872 20.7783 193.458 25.6385 196.989 35.1652L252.671 185.384C256.203 194.911 251.342 205.497 241.816 209.028L91.5966 264.71C82.0699 268.241 71.4843 263.381 67.953 253.854L12.2709 103.635Z" fill="#5E510B"/>
<g clip-path="url(#clip0_343_2385)">
<path d="M125.554 104.599L134.455 128.612C136.066 132.956 140.893 135.173 145.238 133.562L164.56 126.4L139.503 184.475L130.602 160.462C128.992 156.117 124.164 153.901 119.82 155.511L100.496 162.674L125.554 104.599Z" fill="#161616" stroke="#161616" stroke-width="8.38997"/>
</g>
<path d="M46.1459 74.9565C44.6339 64.9096 51.5529 55.5392 61.5999 54.0272L220.023 30.1858C230.07 28.6739 239.44 35.5928 240.952 45.6398L264.794 204.063C266.306 214.11 259.387 223.48 249.34 224.992L90.9166 248.834C80.8696 250.346 71.4992 243.427 69.9873 233.38L46.1459 74.9565Z" fill="#907E1C"/>
<g clip-path="url(#clip1_343_2385)">
<path d="M156.847 99.0275L160.658 124.352C161.348 128.934 165.621 132.089 170.203 131.399L190.581 128.333L154.195 180.069L150.384 154.744C149.694 150.163 145.421 147.007 140.839 147.697L120.46 150.764L156.847 99.0275Z" fill="#161616" stroke="#161616" stroke-width="8.38997"/>
</g>
<path d="M77.4902 65C77.4902 51.7452 88.2354 41 101.49 41H250.51C263.765 41 274.51 51.7452 274.51 65V214.02C274.51 227.274 263.765 238.02 250.51 238.02H101.49C88.2354 238.02 77.4902 227.274 77.4902 214.02V65Z" fill="#FFE243"/>
<g clip-path="url(#clip2_343_2385)">
<path d="M186.393 88.3098V121.719C186.393 127.764 191.295 132.665 197.34 132.665H224.224L167.239 192.344V158.934C167.239 152.889 162.339 147.989 156.294 147.989H129.409L186.393 88.3098Z" fill="#161616" stroke="#161616" stroke-width="10.9455"/>
</g>
<defs>
<clipPath id="clip0_343_2385">
<rect width="100.68" height="100.68" fill="white" transform="translate(68.2676 115.032) rotate(-20.3384)"/>
</clipPath>
<clipPath id="clip1_343_2385">
<rect width="100.68" height="100.68" fill="white" transform="translate(98.6367 97.5457) rotate(-8.55832)"/>
</clipPath>
<clipPath id="clip2_343_2385">
<rect width="131.346" height="131.346" fill="white" transform="translate(110.816 74.3268)"/>
</clipPath>
</defs>
</svg>
